<svg width="1024" height="1024" viewBox="0 0 1024 1024" fill="none" xmlns="http://www.w3.org/2000/svg">
<circle cx="512" cy="512" r="512" fill="url(#paint0_linear_1_170)"/>
<path fill-rule="evenodd" clip-rule="evenodd" d="M737.5 227.5C752.768 234.425 766.435 243.759 778.5 255.5C785.947 264.616 792.614 274.283 798.5 284.5C801.911 291.749 804.911 299.082 807.5 306.5C809.483 315.733 810.816 325.066 811.5 334.5C813.575 344.89 810.909 353.723 803.5 361C792.023 366.416 783.356 363.583 777.5 352.5C776.822 344.165 775.988 335.832 775 327.5C774.594 324.258 773.761 321.258 772.5 318.5C770.844 310.862 767.844 303.862 763.5 297.5C757.472 286.111 749.138 276.777 738.5 269.5C720.904 258.209 701.571 253.709 680.5 256C648.226 262.11 626.559 280.61 615.5 311.5C610.445 324.233 608.112 337.566 608.5 351.5C603.229 362.261 594.895 365.594 583.5 361.5C578.415 358.699 575.248 354.366 574 348.5C573.347 342.138 573.513 335.805 574.5 329.5C575.018 320.908 576.685 312.575 579.5 304.5C581.912 296.597 584.912 288.93 588.5 281.5C624.133 225.543 673.8 207.543 737.5 227.5Z" fill="#D9D5E5"/>
<path fill-rule="evenodd" clip-rule="evenodd" d="M710.5 340.5C710.709 341.922 711.209 343.255 712 344.5C714.706 355.746 711.206 364.246 701.5 370C686.555 374.532 676.888 369.366 672.5 354.5C672.164 347.337 674.497 341.17 679.5 336C691.033 328.974 701.366 330.474 710.5 340.5Z" fill="#D7D4E4"/>
<path d="M520.5 409.5C537.269 412.557 552.603 418.891 566.5 428.5C579.709 439.041 590.376 451.708 598.5 466.5C602.293 474.879 605.293 483.545 607.5 492.5C609.213 498.396 610.546 504.396 611.5 510.5C612.276 518.475 612.61 526.475 612.5 534.5C613.018 544.826 613.351 555.159 613.5 565.5C613.487 577.845 613.821 590.178 614.5 602.5C614.902 614.773 616.902 626.773 620.5 638.5C621.441 640.05 622.107 641.716 622.5 643.5C627.806 657.464 636.473 668.798 648.5 677.5C670.976 694.154 695.642 697.988 722.5 689C748.712 678.955 765.712 660.455 773.5 633.5C777.006 618.716 778.339 603.716 777.5 588.5V544.5V507.5V476.5V452.5C777.334 447.156 777.501 441.823 778 436.5C778.562 435.377 779.117 434.266 779.667 433.166L780.5 431.5C785.552 425.045 792.219 422.711 800.5 424.5C807.597 426.597 811.931 431.264 813.5 438.5V463.5V494.5V531.5V575.5V604.5C812.836 609.473 812.503 614.473 812.5 619.5C810.844 628.132 809.177 636.799 807.5 645.5C804.422 654.334 800.755 663.001 796.5 671.5C793.185 677.447 789.352 683.113 785 688.5C779.963 693.369 775.13 698.369 770.5 703.5C748.798 720.291 724.132 728.958 696.5 729.5C682.4 730.205 668.733 728.205 655.5 723.5C645.777 720.139 636.777 715.473 628.5 709.5C621.536 704.203 615.202 698.203 609.5 691.5C606.488 687.462 603.488 683.462 600.5 679.5C596.207 671.25 592.207 662.917 588.5 654.5C588.371 652.784 588.038 651.117 587.5 649.5C583.55 638.468 580.884 627.134 579.5 615.5C578.936 603.013 578.269 590.679 577.5 578.5C577.829 563.657 577.496 548.99 576.5 534.5C576.823 527.978 576.49 521.645 575.5 515.5C575.461 511.267 574.795 507.267 573.5 503.5C572.293 494.526 568.959 486.526 563.5 479.5C552.585 462.354 536.918 452.188 516.5 449C476.071 444.795 448.571 461.628 434 499.5C431.549 505.969 430.049 512.635 429.5 519.5C428.505 531.655 428.171 543.989 428.5 556.5V576.5V601.5V631.5V669.5V712.5C426.117 726.037 418.117 731.537 404.5 729C401.403 727.727 398.736 725.893 396.5 723.5C395.347 721.193 394.18 718.86 393 716.5C392.5 705.172 392.333 693.838 392.5 682.5V644.5V614.5V589.5V569.5V540.5C394.056 524.294 391.389 508.961 384.5 494.5C379.799 482.481 372.466 472.481 362.5 464.5C353.517 456.208 342.851 451.041 330.5 449C288.097 443.85 261.097 461.683 249.5 502.5C245.357 515.726 243.69 529.393 244.5 543.5V592.5V621.5V641.5V666.5V697.5C244.839 704.574 244.339 711.574 243 718.5C236.893 729.535 228.06 732.368 216.5 727C211.273 722.713 208.606 717.213 208.5 710.5V679.5V655.5V635.5V606.5V557.5C208.475 544.821 208.808 532.155 209.5 519.5C210.509 511.11 211.843 502.777 213.5 494.5C218.033 478.773 224.7 464.107 233.5 450.5C260.102 419.735 293.769 407.068 334.5 412.5C352.684 416.008 369.684 422.675 385.5 432.5C394.785 439.785 403.118 448.118 410.5 457.5C438.226 421.31 474.893 405.31 520.5 409.5Z" fill="#D9D5E5"/>
<defs>
<linearGradient id="paint0_linear_1_170" x1="277.5" y1="57" x2="751" y2="966" gradientUnits="userSpaceOnUse">
<stop stop-color="#5328E1"/>
<stop offset="1" stop-color="#0F023A"/>
</linearGradient>
</defs>
</svg>
